<?xml version="1.0" encoding="iso-8859-1"?>
<!-- Generator: Adobe Illustrator 19.0.0, SVG Export Plug-In . SVG Version: 6.00 Build 0)  -->
<svg version="1.1" id="Layer_1" xmlns="http://www.w3.org/2000/svg" xmlns:xlink="http://www.w3.org/1999/xlink" x="0px" y="0px"
	 viewBox="0 0 512 512" style="enable-background:new 0 0 512 512;" xml:space="preserve">
<rect x="166.957" y="439.652" style="fill:#005ECE;" width="345.043" height="66.783"/>
<polygon style="fill:#2488FF;" points="467.478,172.522 467.478,139.13 434.087,139.13 434.087,105.739 400.696,105.739 
	400.696,72.348 367.304,72.348 367.304,38.957 333.913,38.957 333.913,5.565 267.13,5.565 267.13,38.957 233.739,38.957 
	233.739,72.348 200.348,72.348 200.348,105.739 166.957,105.739 166.957,139.13 133.565,139.13 133.565,172.522 100.174,172.522 
	100.174,205.913 66.783,205.913 66.783,239.304 33.391,239.304 33.391,272.696 0,272.696 0,339.478 33.391,339.478 33.391,372.87 
	66.783,372.87 66.783,406.261 100.174,406.261 100.174,439.652 133.565,439.652 133.565,473.043 166.957,473.043 166.957,506.435 
	233.739,506.435 233.739,473.043 267.13,473.043 267.13,439.652 300.522,439.652 300.522,406.261 333.913,406.261 333.913,372.87 
	367.304,372.87 367.304,339.478 400.696,339.478 400.696,306.087 434.087,306.087 434.087,272.696 467.478,272.696 467.478,239.304 
	500.87,239.304 500.87,172.522 "/>
<polygon style="fill:#FFA733;" points="500.87,172.522 467.478,172.522 467.478,139.13 434.087,139.13 434.087,105.739 
	400.696,105.739 400.696,72.348 367.304,72.348 367.304,38.957 333.913,38.957 333.913,5.565 267.13,5.565 267.13,38.957 
	233.739,38.957 233.739,72.348 200.348,72.348 200.348,105.739 166.957,105.739 166.957,139.13 133.565,139.13 133.565,172.522 
	166.957,172.522 166.957,205.913 200.348,205.913 200.348,239.304 233.739,239.304 233.739,272.696 267.13,272.696 267.13,306.087 
	300.522,306.087 300.522,339.478 333.913,339.478 333.913,372.87 367.304,372.87 367.304,339.478 400.696,339.478 400.696,306.087 
	434.087,306.087 434.087,272.696 467.478,272.696 467.478,239.304 500.87,239.304 "/>
<polygon style="fill:#FFCD00;" points="367.304,72.348 367.304,38.957 333.913,38.957 333.913,5.565 267.13,5.565 267.13,38.957 
	233.739,38.957 233.739,72.348 200.348,72.348 200.348,105.739 166.957,105.739 166.957,139.13 133.565,139.13 133.565,172.522 
	166.957,172.522 166.957,205.913 200.348,205.913 200.348,239.304 233.739,239.304 233.739,272.696 267.13,272.696 267.13,205.913 
	300.522,205.913 300.522,172.522 333.913,172.522 333.913,139.13 367.304,139.13 367.304,105.739 400.696,105.739 400.696,72.348 
	"/>
<g>
	<rect x="200.348" y="239.304" style="fill:#005ECE;" width="66.783" height="33.391"/>
	<path style="fill:#005ECE;" d="M333.913,339.478v-33.391h-33.391v-33.391H267.13v-33.391h-33.391v-33.391h-33.391v-33.391h-33.391
		V139.13h-33.391v33.391h-33.391v33.391H66.783v33.391H33.391v33.391H0v33.391v33.391h33.391v33.391h33.391v33.391h33.391v33.391
		h33.391v33.391h33.391v33.391h66.783v-33.391h33.391v-33.391h33.391v-33.391h33.391V372.87h33.391v-33.391H333.913z
		 M133.565,205.913h33.391v33.391h-33.391V205.913z M66.783,272.696h33.391h100.174h33.391v33.391H66.783V272.696z M233.739,439.652
		h-66.783v-33.391h66.783V439.652z M267.13,372.87H133.565h-33.391v-33.391H267.13h33.391v33.391H267.13z"/>
</g>
<rect x="166.957" y="473.043" width="66.783" height="33.391"/>
<rect x="233.739" y="439.652" width="33.391" height="33.391"/>
<rect x="267.13" y="406.261" width="33.391" height="33.391"/>
<rect x="300.522" y="372.87" width="33.391" height="33.391"/>
<rect x="333.913" y="339.478" width="33.391" height="33.391"/>
<rect x="367.304" y="306.087" width="33.391" height="33.391"/>
<rect x="400.696" y="272.696" width="33.391" height="33.391"/>
<rect x="467.478" y="172.522" width="33.391" height="66.783"/>
<rect x="434.087" y="239.304" width="33.391" height="33.391"/>
<rect y="272.696" width="33.391" height="66.783"/>
<rect x="33.391" y="239.304" width="33.391" height="33.391"/>
<rect x="66.783" y="205.913" width="33.391" height="33.391"/>
<rect x="100.174" y="172.522" width="33.391" height="33.391"/>
<rect x="133.565" y="139.13" width="33.391" height="33.391"/>
<rect x="166.957" y="105.739" width="33.391" height="33.391"/>
<rect x="200.348" y="72.348" width="33.391" height="33.391"/>
<rect x="267.13" y="5.565" width="66.783" height="33.391"/>
<rect x="233.739" y="38.957" width="33.391" height="33.391"/>
<rect x="33.391" y="339.478" width="33.391" height="33.391"/>
<rect x="66.783" y="372.87" width="33.391" height="33.391"/>
<rect x="100.174" y="406.261" width="33.391" height="33.391"/>
<rect x="133.565" y="439.652" width="33.391" height="33.391"/>
<rect x="333.913" y="38.957" width="33.391" height="33.391"/>
<rect x="367.304" y="72.348" width="33.391" height="33.391"/>
<rect x="400.696" y="105.739" width="33.391" height="33.391"/>
<rect x="434.087" y="139.13" width="33.391" height="33.391"/>
<rect x="166.957" y="172.522" width="33.391" height="33.391"/>
<rect x="200.348" y="205.913" width="33.391" height="33.391"/>
<rect x="233.739" y="239.304" width="33.391" height="33.391"/>
<rect x="267.13" y="272.696" width="33.391" height="33.391"/>
<rect x="300.522" y="306.087" width="33.391" height="33.391"/>
<g>
</g>
<g>
</g>
<g>
</g>
<g>
</g>
<g>
</g>
<g>
</g>
<g>
</g>
<g>
</g>
<g>
</g>
<g>
</g>
<g>
</g>
<g>
</g>
<g>
</g>
<g>
</g>
<g>
</g>
</svg>
