<?xml version="1.0" encoding="iso-8859-1"?>
<!-- Generator: Adobe Illustrator 19.0.0, SVG Export Plug-In . SVG Version: 6.00 Build 0)  -->
<svg version="1.1" id="Layer_1" xmlns="http://www.w3.org/2000/svg" xmlns:xlink="http://www.w3.org/1999/xlink" x="0px" y="0px"
	 viewBox="0 0 512 512" style="enable-background:new 0 0 512 512;" xml:space="preserve">
<polygon style="fill:#DDB200;" points="478.609,111.302 478.609,77.913 233.739,77.913 233.739,44.522 33.391,44.522 33.391,77.913 
	0,77.913 0,233.739 33.391,233.739 33.391,356.174 66.783,356.174 66.783,467.478 511.992,467.478 511.992,467.467 512,467.478 
	512,111.302 "/>
<polygon style="fill:#FFDA44;" points="445.217,356.185 445.217,267.13 411.826,267.13 411.826,178.087 378.435,178.087 
	378.435,144.696 267.13,144.696 267.13,77.913 233.739,77.913 233.739,44.522 33.391,44.522 33.391,77.913 0,77.913 0,233.739 
	33.391,233.739 33.391,356.174 66.783,356.174 66.783,467.478 478.609,467.478 478.609,356.185 "/>
<rect x="378.435" y="178.087" width="33.391" height="89.043"/>
<rect x="33.391" y="44.522" width="200.348" height="33.391"/>
<rect y="77.913" width="33.391" height="155.826"/>
<rect x="33.391" y="233.739" width="33.391" height="122.435"/>
<polygon points="512,111.302 478.609,111.302 478.609,77.913 233.739,77.913 233.739,178.087 378.435,178.087 378.435,144.696 
	267.13,144.696 267.13,111.302 478.609,111.302 478.609,356.185 445.217,356.185 445.217,267.13 411.826,267.13 411.826,356.185 
	445.217,356.185 445.217,434.086 100.174,434.086 100.174,356.174 66.783,356.174 66.783,467.478 512,467.478 "/>
<g>
</g>
<g>
</g>
<g>
</g>
<g>
</g>
<g>
</g>
<g>
</g>
<g>
</g>
<g>
</g>
<g>
</g>
<g>
</g>
<g>
</g>
<g>
</g>
<g>
</g>
<g>
</g>
<g>
</g>
</svg>
