<?xml version="1.0" encoding="iso-8859-1"?>
<!-- Generator: Adobe Illustrator 19.0.0, SVG Export Plug-In . SVG Version: 6.00 Build 0)  -->
<svg version="1.1" id="Layer_1" xmlns="http://www.w3.org/2000/svg" xmlns:xlink="http://www.w3.org/1999/xlink" x="0px" y="0px"
	 viewBox="0 0 512 512" style="enable-background:new 0 0 512 512;" xml:space="preserve">
<polygon style="fill:#46F8FF;" points="478.609,66.783 478.609,33.391 445.217,33.391 445.217,0 133.565,0 133.565,256 0,256 
	0,356.174 133.565,356.174 133.565,512 512,512 512,233.739 512,233.739 512,66.783 "/>
<rect x="133.565" style="fill:#9BFBFF;" width="189.217" height="512"/>
<polygon style="fill:#00D7DF;" points="478.609,66.783 478.609,33.391 445.217,33.391 445.217,0 378.435,0 378.435,33.391 
	378.435,66.783 378.435,133.565 445.217,133.565 478.609,133.565 512,133.565 512,66.783 "/>
<polygon style="fill:#2488FF;" points="400.696,289.391 367.304,289.391 367.304,256 333.913,256 333.913,222.609 300.522,222.609 
	300.522,189.217 233.739,189.217 233.739,256 0,256 0,356.174 233.739,356.174 233.739,422.957 300.522,422.957 300.522,389.565 
	333.913,389.565 333.913,356.174 367.304,356.174 367.304,322.783 400.696,322.783 "/>
<path d="M512,133.565v-33.391l0,0V66.783h-33.391v33.391h-66.783V33.391h33.391v33.391h33.391V33.391h-33.391V0H133.565v256H0
	v100.174h133.565V512H512v-33.391l0,0V133.565L512,133.565z M478.609,478.609H166.957V356.174h66.783v66.783h33.391h33.391v-33.391
	H267.13v-66.783H33.391v-33.391H267.13v-66.783h33.391v-33.391H267.13l0,0h-33.391V256h-66.783V33.391h211.478v100.174h100.174
	V478.609z"/>
<rect x="333.913" y="322.783" width="33.391" height="33.391"/>
<rect x="300.522" y="222.609" width="33.391" height="33.391"/>
<rect x="333.913" y="256" width="33.391" height="33.391"/>
<rect x="367.304" y="289.391" width="33.391" height="33.391"/>
<rect x="300.522" y="356.174" width="33.391" height="33.391"/>
<g>
</g>
<g>
</g>
<g>
</g>
<g>
</g>
<g>
</g>
<g>
</g>
<g>
</g>
<g>
</g>
<g>
</g>
<g>
</g>
<g>
</g>
<g>
</g>
<g>
</g>
<g>
</g>
<g>
</g>
</svg>
