<?xml version="1.0" encoding="iso-8859-1"?>
<!-- Generator: Adobe Illustrator 19.0.0, SVG Export Plug-In . SVG Version: 6.00 Build 0)  -->
<svg version="1.1" id="Layer_1" xmlns="http://www.w3.org/2000/svg" xmlns:xlink="http://www.w3.org/1999/xlink" x="0px" y="0px"
	 viewBox="0 0 512 512" style="enable-background:new 0 0 512 512;" xml:space="preserve">
<polygon style="fill:#2488FF;" points="66.783,139.13 66.783,172.522 100.174,172.522 100.174,205.913 133.565,205.913 
	133.565,239.304 166.957,239.304 166.957,272.696 133.565,272.696 133.565,306.087 100.174,306.087 100.174,339.478 66.783,339.478 
	66.783,372.87 0,372.87 0,139.13 "/>
<g>
	<rect y="38.957" style="fill:#005ECE;" width="512" height="33.391"/>
	<rect x="200.348" y="139.13" style="fill:#005ECE;" width="311.652" height="33.391"/>
	<rect x="200.348" y="239.304" style="fill:#005ECE;" width="311.652" height="33.391"/>
	<rect y="439.652" style="fill:#005ECE;" width="512" height="33.391"/>
	<rect x="200.348" y="339.478" style="fill:#005ECE;" width="311.652" height="33.391"/>
</g>
<rect x="100.174" y="272.696" width="33.391" height="33.391"/>
<rect x="66.783" y="172.522" width="33.391" height="33.391"/>
<polygon points="33.391,172.522 66.783,172.522 66.783,139.13 33.391,139.13 0,139.13 0,172.522 0,339.478 0,372.87 33.391,372.87 
	66.783,372.87 66.783,339.478 33.391,339.478 "/>
<rect x="100.174" y="205.913" width="33.391" height="33.391"/>
<rect x="133.565" y="239.304" width="33.391" height="33.391"/>
<rect x="66.783" y="306.087" width="33.391" height="33.391"/>
<g>
</g>
<g>
</g>
<g>
</g>
<g>
</g>
<g>
</g>
<g>
</g>
<g>
</g>
<g>
</g>
<g>
</g>
<g>
</g>
<g>
</g>
<g>
</g>
<g>
</g>
<g>
</g>
<g>
</g>
</svg>
