<?xml version="1.0" encoding="iso-8859-1"?>
<!-- Generator: Adobe Illustrator 19.0.0, SVG Export Plug-In . SVG Version: 6.00 Build 0)  -->
<svg version="1.1" id="Layer_1" xmlns="http://www.w3.org/2000/svg" xmlns:xlink="http://www.w3.org/1999/xlink" x="0px" y="0px"
	 viewBox="0 0 512 512" style="enable-background:new 0 0 512 512;" xml:space="preserve">
<polygon style="fill:#FFCD00;" points="512,222.609 478.609,222.609 478.609,189.217 422.957,189.217 422.957,222.609 
	389.565,222.609 389.565,256 356.174,256 356.174,289.391 322.783,289.391 322.783,322.783 289.391,322.783 289.391,356.174 
	256,356.174 256,389.565 222.609,389.565 222.609,422.957 189.217,422.957 189.217,512 278.261,512 278.261,478.609 
	311.652,478.609 311.652,445.217 345.043,445.217 345.043,411.826 378.435,411.826 378.435,378.435 411.826,378.435 
	411.826,345.043 445.217,345.043 445.217,311.652 478.609,311.652 478.609,278.261 512,278.261 "/>
<rect x="189.217" y="422.957" style="fill:#FFEB99;" width="89.043" height="89.043"/>
<g>
	<polygon style="fill:#005ECE;" points="478.609,222.609 478.609,189.217 422.957,189.217 422.957,256 445.217,256 445.217,278.261 
		512,278.261 512,222.609 	"/>
	<polygon style="fill:#005ECE;" points="389.565,66.785 389.565,33.391 356.174,33.391 356.174,0 0,0 0,0 0,0 0,422.959 
		122.434,422.959 122.435,422.957 189.219,422.957 189.217,389.565 222.609,389.565 222.609,356.174 256,356.174 256,322.783 
		289.391,322.783 289.391,289.391 322.783,289.391 322.783,256 356.174,256 356.174,222.609 389.565,222.609 389.565,189.22 
		422.957,189.22 422.957,66.785 	"/>
</g>
<g>
	<rect x="89.042" style="fill:#BDDBFF;" width="233.739" height="133.565"/>
	<polygon style="fill:#BDDBFF;" points="322.783,200.348 89.042,200.348 89.042,422.957 189.219,422.957 189.217,389.565 
		222.609,389.565 222.609,356.174 256,356.174 256,322.783 289.391,322.783 289.391,289.391 322.783,289.391 	"/>
</g>
<path d="M0,0v422.957h155.827v-33.391h-33.394V233.739h166.959V256h33.391v-55.652H89.042v189.217H33.391V33.391h55.65v100.174
	h233.741v-33.391l0,0V33.391h33.391V0H0z M289.391,100.174H122.434V33.391h166.958V100.174z"/>
<polygon points="389.565,66.783 389.565,33.391 356.174,33.391 356.174,66.783 389.565,66.783 389.565,155.826 422.957,155.826 
	422.957,66.783 "/>
<polygon points="222.609,422.957 189.217,422.957 189.217,512 278.261,512 278.261,478.609 222.609,478.609 "/>
<rect x="222.609" y="389.565" width="33.391" height="33.391"/>
<rect x="256" y="356.174" width="33.391" height="33.391"/>
<rect x="289.391" y="322.783" width="33.391" height="33.391"/>
<rect x="322.783" y="289.391" width="33.391" height="33.391"/>
<rect x="356.174" y="256" width="33.391" height="33.391"/>
<rect x="389.565" y="222.609" width="33.391" height="33.391"/>
<rect x="422.957" y="189.217" width="55.652" height="33.391"/>
<rect x="278.261" y="445.217" width="33.391" height="33.391"/>
<rect x="311.652" y="411.826" width="33.391" height="33.391"/>
<rect x="345.043" y="378.435" width="33.391" height="33.391"/>
<rect x="378.435" y="345.043" width="33.391" height="33.391"/>
<rect x="411.826" y="311.652" width="33.391" height="33.391"/>
<rect x="445.217" y="278.261" width="33.391" height="33.391"/>
<rect x="478.609" y="222.609" width="33.391" height="55.652"/>
<g>
</g>
<g>
</g>
<g>
</g>
<g>
</g>
<g>
</g>
<g>
</g>
<g>
</g>
<g>
</g>
<g>
</g>
<g>
</g>
<g>
</g>
<g>
</g>
<g>
</g>
<g>
</g>
<g>
</g>
</svg>
