<?xml version="1.0" encoding="iso-8859-1"?>
<!-- Generator: Adobe Illustrator 19.0.0, SVG Export Plug-In . SVG Version: 6.00 Build 0)  -->
<svg version="1.1" id="Layer_1" xmlns="http://www.w3.org/2000/svg" xmlns:xlink="http://www.w3.org/1999/xlink" x="0px" y="0px"
	 viewBox="0 0 512 512" style="enable-background:new 0 0 512 512;" xml:space="preserve">
<polygon style="fill:#005ECE;" points="512,66.783 478.609,66.783 478.609,33.389 445.217,33.389 445.217,0 0,0 0,0 0,0 0,512 
	133.564,512 133.564,512 378.435,512 378.435,512 512,512 512,511.998 512,511.998 "/>
<g>
	<rect x="100.174" style="fill:#BDDBFF;" width="311.652" height="133.565"/>
	<rect x="100.174" y="200.348" style="fill:#BDDBFF;" width="311.652" height="311.652"/>
</g>
<rect x="445.217" y="33.391" width="33.391" height="33.391"/>
<path d="M478.609,66.783v411.826h-66.783V200.348H100.174v278.261H33.391V33.391h66.783v100.174h311.652V33.391h33.391V0H0v512h512
	V66.783H478.609z M378.435,33.391v66.783h-244.87V33.391H378.435z M133.565,478.609v-244.87h244.87v244.87H133.565z"/>
<g>
</g>
<g>
</g>
<g>
</g>
<g>
</g>
<g>
</g>
<g>
</g>
<g>
</g>
<g>
</g>
<g>
</g>
<g>
</g>
<g>
</g>
<g>
</g>
<g>
</g>
<g>
</g>
<g>
</g>
</svg>
