<?xml version="1.0" encoding="iso-8859-1"?>
<!-- Generator: Adobe Illustrator 19.0.0, SVG Export Plug-In . SVG Version: 6.00 Build 0)  -->
<svg version="1.1" id="Layer_1" xmlns="http://www.w3.org/2000/svg" xmlns:xlink="http://www.w3.org/1999/xlink" x="0px" y="0px"
	 viewBox="0 0 512 512" style="enable-background:new 0 0 512 512;" xml:space="preserve">
<g>
	<polygon style="fill:#005ECE;" points="339.478,100.174 339.478,133.565 406.261,133.565 406.261,166.957 439.652,166.957 
		439.652,100.174 	"/>
	<polygon style="fill:#005ECE;" points="372.87,200.348 339.478,200.348 339.478,233.739 439.652,233.739 439.652,200.348 
		406.261,200.348 406.261,166.957 372.87,166.957 	"/>
	<polygon style="fill:#005ECE;" points="339.478,278.261 339.478,311.652 406.261,311.652 406.261,345.043 439.652,345.043 
		439.652,278.261 	"/>
	<polygon style="fill:#005ECE;" points="372.87,378.435 339.478,378.435 339.478,411.826 439.652,411.826 439.652,378.435 
		406.261,378.435 406.261,345.043 372.87,345.043 	"/>
</g>
<polygon style="fill:#2488FF;" points="239.304,0 239.304,33.391 205.913,33.391 205.913,66.783 172.522,66.783 172.522,100.174 
	139.13,100.174 139.13,133.565 105.739,133.565 105.739,166.957 72.348,166.957 72.348,200.348 139.13,200.348 139.13,166.957 
	172.522,166.957 172.522,133.565 205.913,133.565 205.913,100.174 239.304,100.174 239.304,66.783 272.696,66.783 272.696,33.391 
	306.087,33.391 306.087,0 "/>
<polygon style="fill:#005ECE;" points="272.696,166.957 272.696,133.565 239.304,133.565 239.304,100.174 205.913,100.174 
	205.913,66.783 172.522,66.783 172.522,33.391 139.13,33.391 139.13,0 72.348,0 72.348,33.391 105.739,33.391 105.739,66.783 
	139.13,66.783 139.13,100.174 172.522,100.174 172.522,133.565 205.913,133.565 205.913,166.957 239.304,166.957 239.304,200.348 
	306.087,200.348 306.087,166.957 "/>
<polygon style="fill:#2488FF;" points="239.304,311.652 239.304,345.043 205.913,345.043 205.913,378.435 172.522,378.435 
	172.522,411.826 139.13,411.826 139.13,445.217 105.739,445.217 105.739,478.609 72.348,478.609 72.348,512 139.13,512 
	139.13,478.609 172.522,478.609 172.522,445.217 205.913,445.217 205.913,411.826 239.304,411.826 239.304,378.435 272.696,378.435 
	272.696,345.043 306.087,345.043 306.087,311.652 "/>
<polygon style="fill:#005ECE;" points="272.696,478.609 272.696,445.217 239.304,445.217 239.304,411.826 205.913,411.826 
	205.913,378.435 172.522,378.435 172.522,345.043 139.13,345.043 139.13,311.652 72.348,311.652 72.348,345.043 105.739,345.043 
	105.739,378.435 139.13,378.435 139.13,411.826 172.522,411.826 172.522,445.217 205.913,445.217 205.913,478.609 239.304,478.609 
	239.304,512 306.087,512 306.087,478.609 "/>
<g>
</g>
<g>
</g>
<g>
</g>
<g>
</g>
<g>
</g>
<g>
</g>
<g>
</g>
<g>
</g>
<g>
</g>
<g>
</g>
<g>
</g>
<g>
</g>
<g>
</g>
<g>
</g>
<g>
</g>
</svg>
