<?xml version="1.0" encoding="iso-8859-1"?>
<!-- Generator: Adobe Illustrator 19.0.0, SVG Export Plug-In . SVG Version: 6.00 Build 0)  -->
<svg version="1.1" id="Layer_1" xmlns="http://www.w3.org/2000/svg" xmlns:xlink="http://www.w3.org/1999/xlink" x="0px" y="0px"
	 viewBox="0 0 512 512" style="enable-background:new 0 0 512 512;" xml:space="preserve">
<polygon style="fill:#2488FF;" points="311.652,0 311.652,311.652 200.348,311.652 200.348,0 100.174,0 100.174,345.043 
	133.565,345.043 133.565,378.435 166.957,378.435 166.957,411.826 345.043,411.826 345.043,378.435 378.435,378.435 
	378.435,345.043 411.826,345.043 411.826,0 "/>
<rect y="445.217" style="fill:#005ECE;" width="512" height="66.783"/>
<rect x="166.957" y="378.435" width="178.087" height="33.391"/>
<rect x="200.348" y="311.652" width="111.304" height="33.391"/>
<rect x="133.565" y="345.043" width="33.391" height="33.391"/>
<rect x="345.043" y="345.043" width="33.391" height="33.391"/>
<polygon points="311.652,0 311.652,311.652 345.043,311.652 345.043,33.391 378.435,33.391 378.435,345.043 411.826,345.043 
	411.826,0 "/>
<polygon points="166.957,33.391 166.957,311.652 200.348,311.652 200.348,0 100.174,0 100.174,345.043 133.565,345.043 
	133.565,33.391 "/>
<g>
</g>
<g>
</g>
<g>
</g>
<g>
</g>
<g>
</g>
<g>
</g>
<g>
</g>
<g>
</g>
<g>
</g>
<g>
</g>
<g>
</g>
<g>
</g>
<g>
</g>
<g>
</g>
<g>
</g>
</svg>
