<?xml version="1.0" encoding="iso-8859-1"?>
<!-- Generator: Adobe Illustrator 19.0.0, SVG Export Plug-In . SVG Version: 6.00 Build 0)  -->
<svg version="1.1" id="Layer_1" xmlns="http://www.w3.org/2000/svg" xmlns:xlink="http://www.w3.org/1999/xlink" x="0px" y="0px"
	 viewBox="0 0 512 512" style="enable-background:new 0 0 512 512;" xml:space="preserve">
<polygon style="fill:#2488FF;" points="478.608,200.348 478.608,166.959 478.608,166.959 478.608,133.568 445.216,133.568 
	445.216,100.176 478.608,100.176 478.608,66.784 511.999,66.784 511.999,0.001 244.869,0.001 244.869,267.13 311.651,267.13 
	311.651,233.739 345.043,233.739 345.043,200.348 378.434,200.348 378.434,233.739 411.825,233.739 411.825,345.043 
	378.434,345.043 378.434,378.435 345.043,378.435 345.043,411.826 166.956,411.826 166.956,378.435 133.565,378.435 
	133.565,345.043 100.174,345.043 100.174,166.957 133.565,166.957 133.565,66.783 66.782,66.783 66.782,100.174 33.391,100.174 
	33.391,166.957 0,166.957 0,345.043 33.391,345.043 33.391,411.826 66.782,411.826 66.782,445.217 100.174,445.217 100.174,478.608 
	166.956,478.608 166.956,511.999 345.043,511.999 345.043,478.608 411.825,478.608 411.825,445.217 445.216,445.217 
	445.216,411.827 478.608,411.827 478.608,345.046 512,345.046 512,200.348 "/>
<polygon style="fill:#005ECE;" points="378.434,133.567 345.043,133.565 345.043,100.174 311.651,100.174 311.651,66.783 
	244.869,66.783 244.869,267.13 311.651,267.13 311.651,233.739 345.043,233.739 345.043,200.348 378.434,200.348 "/>
<rect x="66.782" y="411.826" width="33.391" height="33.391"/>
<rect x="166.956" y="478.608" width="178.087" height="33.391"/>
<rect x="478.608" y="200.348" width="33.391" height="144.695"/>
<rect x="445.216" y="345.043" width="33.391" height="66.782"/>
<rect x="33.391" y="100.174" width="33.391" height="66.782"/>
<rect y="166.957" width="33.391" height="178.087"/>
<rect x="33.391" y="345.043" width="33.391" height="66.782"/>
<rect x="100.174" y="445.217" width="66.782" height="33.391"/>
<rect x="345.043" y="445.217" width="66.782" height="33.391"/>
<rect x="411.825" y="411.826" width="33.391" height="33.391"/>
<polygon points="244.869,0.001 244.869,267.13 311.651,267.13 311.651,233.739 278.26,233.739 278.26,33.392 478.608,33.392 
	478.608,66.783 511.999,66.783 511.999,0.001 "/>
<polygon points="445.216,100.174 411.825,100.174 411.825,133.565 445.216,133.565 445.216,200.348 478.608,200.348 
	478.608,133.565 445.216,133.565 445.216,100.174 478.608,100.174 478.608,66.783 445.216,66.783 "/>
<rect x="411.825" y="233.739" width="33.391" height="111.304"/>
<rect x="66.782" y="166.957" width="33.391" height="178.087"/>
<polygon points="100.174,166.957 133.565,166.957 133.565,66.783 66.782,66.783 66.782,100.174 100.174,100.174 "/>
<polygon points="166.956,411.826 166.956,378.435 133.565,378.435 133.565,345.043 100.174,345.043 100.174,411.826 "/>
<polygon points="411.825,411.826 411.825,345.043 378.434,345.043 378.434,378.435 345.043,378.435 345.043,411.826 "/>
<rect x="166.956" y="411.826" width="178.087" height="33.391"/>
<rect x="311.651" y="200.348" width="33.391" height="33.391"/>
<polygon points="411.825,166.957 378.434,166.957 378.434,166.957 345.043,166.957 345.043,200.348 378.434,200.348 
	378.434,233.739 411.825,233.739 "/>
<g>
</g>
<g>
</g>
<g>
</g>
<g>
</g>
<g>
</g>
<g>
</g>
<g>
</g>
<g>
</g>
<g>
</g>
<g>
</g>
<g>
</g>
<g>
</g>
<g>
</g>
<g>
</g>
<g>
</g>
</svg>
