<?xml version="1.0" encoding="iso-8859-1"?>
<!-- Generator: Adobe Illustrator 19.0.0, SVG Export Plug-In . SVG Version: 6.00 Build 0)  -->
<svg version="1.1" id="Layer_1" xmlns="http://www.w3.org/2000/svg" xmlns:xlink="http://www.w3.org/1999/xlink" x="0px" y="0px"
	 viewBox="0 0 512 512" style="enable-background:new 0 0 512 512;" xml:space="preserve">
<g>
	<polygon style="fill:#2488FF;" points="512,68.267 477.867,68.267 477.867,34.133 443.733,34.133 443.733,0 307.2,0 307.2,34.133 
		273.067,34.133 273.067,68.267 238.933,68.267 238.933,102.4 204.8,102.4 204.8,170.667 273.067,170.667 273.067,136.533 
		307.2,136.533 307.2,102.4 409.6,102.4 409.6,204.8 375.467,204.8 375.467,238.933 341.333,238.933 341.333,307.2 409.6,307.2 
		409.6,273.067 443.733,273.067 443.733,238.933 477.867,238.933 477.867,204.8 512,204.8 	"/>
	<polygon style="fill:#2488FF;" points="238.933,341.333 238.933,375.467 204.8,375.467 204.8,409.6 102.4,409.6 102.4,307.2 
		136.533,307.2 136.533,273.067 170.667,273.067 170.667,204.8 102.4,204.8 102.4,238.933 68.267,238.933 68.267,273.067 
		34.133,273.067 34.133,307.2 0,307.2 0,443.733 34.133,443.733 34.133,477.867 68.267,477.867 68.267,512 204.8,512 204.8,477.867 
		238.933,477.867 238.933,443.733 273.067,443.733 273.067,409.6 307.2,409.6 307.2,341.333 	"/>
</g>
<g>
	<rect x="102.4" y="102.4" style="fill:#FFCD00;" width="34.133" height="34.133"/>
	<rect x="68.267" y="68.267" style="fill:#FFCD00;" width="34.133" height="34.133"/>
	<rect x="34.133" y="34.133" style="fill:#FFCD00;" width="34.133" height="34.133"/>
	<rect x="170.667" style="fill:#FFCD00;" width="34.133" height="68.267"/>
	<rect y="170.667" style="fill:#FFCD00;" width="68.267" height="34.133"/>
	<rect x="307.2" y="443.733" style="fill:#FFCD00;" width="34.133" height="68.267"/>
	<rect x="443.733" y="307.2" style="fill:#FFCD00;" width="68.267" height="34.133"/>
	<rect x="443.733" y="443.733" style="fill:#FFCD00;" width="34.133" height="34.133"/>
	<rect x="409.6" y="409.6" style="fill:#FFCD00;" width="34.133" height="34.133"/>
	<rect x="375.467" y="375.467" style="fill:#FFCD00;" width="34.133" height="34.133"/>
</g>
<rect x="307.2" width="136.533" height="34.133"/>
<rect x="443.733" y="34.133" width="34.133" height="34.133"/>
<rect x="477.867" y="68.267" width="34.133" height="136.533"/>
<rect x="238.933" y="68.267" width="34.133" height="34.133"/>
<polygon points="238.933,102.4 204.8,102.4 204.8,170.667 273.067,170.667 273.067,136.533 238.933,136.533 "/>
<rect x="273.067" y="34.133" width="34.133" height="34.133"/>
<rect x="409.6" y="238.933" width="34.133" height="34.133"/>
<rect x="443.733" y="204.8" width="34.133" height="34.133"/>
<rect x="375.467" y="204.8" width="34.133" height="34.133"/>
<polygon points="375.467,238.933 341.333,238.933 341.333,307.2 409.6,307.2 409.6,273.067 375.467,273.067 "/>
<rect x="409.6" y="102.4" width="34.133" height="102.4"/>
<rect x="273.067" y="102.4" width="34.133" height="34.133"/>
<rect x="307.2" y="68.267" width="102.4" height="34.133"/>
<rect x="68.267" y="238.933" width="34.133" height="34.133"/>
<rect x="34.133" y="273.067" width="34.133" height="34.133"/>
<rect y="307.2" width="34.133" height="136.533"/>
<rect x="34.133" y="443.733" width="34.133" height="34.133"/>
<rect x="68.267" y="477.867" width="136.533" height="34.133"/>
<rect x="238.933" y="409.6" width="34.133" height="34.133"/>
<rect x="204.8" y="443.733" width="34.133" height="34.133"/>
<polygon points="238.933,341.333 238.933,375.467 273.067,375.467 273.067,409.6 307.2,409.6 307.2,341.333 "/>
<rect x="204.8" y="375.467" width="34.133" height="34.133"/>
<rect x="102.4" y="409.6" width="102.4" height="34.133"/>
<polygon points="136.533,273.067 170.667,273.067 170.667,204.8 102.4,204.8 102.4,238.933 136.533,238.933 "/>
<rect x="102.4" y="273.067" width="34.133" height="34.133"/>
<rect x="68.267" y="307.2" width="34.133" height="102.4"/>
<g>
</g>
<g>
</g>
<g>
</g>
<g>
</g>
<g>
</g>
<g>
</g>
<g>
</g>
<g>
</g>
<g>
</g>
<g>
</g>
<g>
</g>
<g>
</g>
<g>
</g>
<g>
</g>
<g>
</g>
</svg>
