<?xml version="1.0" encoding="iso-8859-1"?>
<!-- Generator: Adobe Illustrator 19.0.0, SVG Export Plug-In . SVG Version: 6.00 Build 0)  -->
<svg version="1.1" id="Layer_1" xmlns="http://www.w3.org/2000/svg" xmlns:xlink="http://www.w3.org/1999/xlink" x="0px" y="0px"
	 viewBox="0 0 512 512" style="enable-background:new 0 0 512 512;" xml:space="preserve">
<polygon style="fill:#46F8FF;" points="478.609,66.783 478.609,33.391 445.217,33.391 445.217,0 133.565,0 133.565,189.217 
	100.174,189.217 100.174,222.609 66.783,222.609 66.783,256 33.391,256 33.391,289.391 0,289.391 0,322.783 33.391,322.783 
	33.391,356.174 66.783,356.174 66.783,389.565 100.174,389.565 100.174,422.957 133.565,422.957 133.565,512 512,512 512,66.783 "/>
<rect x="133.565" style="fill:#9BFBFF;" width="189.217" height="512"/>
<polygon style="fill:#00D7DF;" points="478.609,66.783 478.609,33.391 445.217,33.391 445.217,0 378.435,0 378.435,33.391 
	378.435,66.783 378.435,133.565 445.217,133.565 478.609,133.565 512,133.565 512,66.783 "/>
<polygon style="fill:#2488FF;" points="0,289.391 33.391,289.391 33.391,256 66.783,256 66.783,222.609 100.174,222.609 
	100.174,189.217 166.957,189.217 166.957,256 400.696,256 400.696,356.174 166.957,356.174 166.957,422.957 100.174,422.957 
	100.174,389.565 66.783,389.565 66.783,356.174 33.391,356.174 33.391,322.783 0,322.783 "/>
<rect x="445.217" y="33.391" width="33.391" height="33.391"/>
<path d="M512,100.174L512,100.174V66.783h-33.391v33.391h-66.783V33.391h33.391V0h-33.391h-33.391H166.955h-33.39l0,0v189.217
	h-33.391v33.391h33.391l0,0V256l0,0v33.391l0,0h33.391h200.348v33.391H166.957h-33.391l0,0v33.391l0,0v33.391h-33.391v33.391h33.391
	V512l0,0h33.39h311.653H512v-33.391V133.565l0,0V100.174z M478.609,478.609H166.957v-55.652v-33.391l0,0v-33.391h200.348h33.391l0,0
	V256l0,0h-33.391H166.957v-33.391v-33.391V33.391h211.478v66.783v33.391h33.391h66.783V478.609z"/>
<rect x="33.391" y="322.783" width="33.391" height="33.391"/>
<rect x="66.783" y="222.609" width="33.391" height="33.391"/>
<rect x="33.391" y="256" width="33.391" height="33.391"/>
<rect y="289.391" width="33.391" height="33.391"/>
<rect x="66.783" y="356.174" width="33.391" height="33.391"/>
<g>
</g>
<g>
</g>
<g>
</g>
<g>
</g>
<g>
</g>
<g>
</g>
<g>
</g>
<g>
</g>
<g>
</g>
<g>
</g>
<g>
</g>
<g>
</g>
<g>
</g>
<g>
</g>
<g>
</g>
</svg>
