<?xml version="1.0" encoding="iso-8859-1"?>
<!-- Generator: Adobe Illustrator 19.0.0, SVG Export Plug-In . SVG Version: 6.00 Build 0)  -->
<svg version="1.1" id="Layer_1" xmlns="http://www.w3.org/2000/svg" xmlns:xlink="http://www.w3.org/1999/xlink" x="0px" y="0px"
	 viewBox="0 0 512 512" style="enable-background:new 0 0 512 512;" xml:space="preserve">
<polygon style="fill:#005ECE;" points="0,0 0,144.696 100.174,144.696 100.174,111.304 200.348,111.304 200.348,411.826 
	122.435,411.826 122.435,512 389.565,512 389.565,411.826 311.652,411.826 311.652,111.304 411.826,111.304 411.826,144.696 
	512,144.696 512,0 "/>
<path d="M0,0v144.696h100.174v-33.391h100.174v300.522h-77.913V512h267.13V411.826h-77.913V111.304h100.174v33.391H512V0H0z
	 M478.609,111.304h-33.391V77.913H278.261v367.304h77.913v33.391H155.826v-33.391h77.913V77.913H66.783v33.391H33.391V33.391
	h445.217V111.304z"/>
<g>
</g>
<g>
</g>
<g>
</g>
<g>
</g>
<g>
</g>
<g>
</g>
<g>
</g>
<g>
</g>
<g>
</g>
<g>
</g>
<g>
</g>
<g>
</g>
<g>
</g>
<g>
</g>
<g>
</g>
</svg>
