<?xml version="1.0" encoding="iso-8859-1"?>
<!-- Generator: Adobe Illustrator 19.0.0, SVG Export Plug-In . SVG Version: 6.00 Build 0)  -->
<svg version="1.1" id="Layer_1" xmlns="http://www.w3.org/2000/svg" xmlns:xlink="http://www.w3.org/1999/xlink" x="0px" y="0px"
	 viewBox="0 0 512 512" style="enable-background:new 0 0 512 512;" xml:space="preserve">
<polygon style="fill:#46F8FF;" points="411.826,66.783 411.826,33.391 378.435,33.391 378.435,0 66.783,0 66.783,512 445.217,512 
	445.217,233.739 445.217,233.739 445.217,66.783 "/>
<rect x="66.783" style="fill:#9BFBFF;" width="189.217" height="512"/>
<polygon style="fill:#00D7DF;" points="411.826,66.783 411.826,33.391 378.435,33.391 378.435,0 311.652,0 311.652,33.391 
	311.652,66.783 311.652,133.565 378.435,133.565 411.826,133.565 445.217,133.565 445.217,66.783 "/>
<rect x="378.435" y="33.391" width="33.391" height="33.391"/>
<path d="M411.826,66.783v33.391h-66.783V33.391h33.391V0H100.174l0,0H66.783v512h345.043l0,0h33.391V66.783H411.826z
	 M411.826,478.609H100.174V33.391h211.478v100.174h100.174V478.609z"/>
<g>
</g>
<g>
</g>
<g>
</g>
<g>
</g>
<g>
</g>
<g>
</g>
<g>
</g>
<g>
</g>
<g>
</g>
<g>
</g>
<g>
</g>
<g>
</g>
<g>
</g>
<g>
</g>
<g>
</g>
</svg>
