<?xml version="1.0" encoding="iso-8859-1"?>
<!-- Generator: Adobe Illustrator 19.0.0, SVG Export Plug-In . SVG Version: 6.00 Build 0)  -->
<svg version="1.1" id="Layer_1" xmlns="http://www.w3.org/2000/svg" xmlns:xlink="http://www.w3.org/1999/xlink" x="0px" y="0px"
	 viewBox="0 0 512 512" style="enable-background:new 0 0 512 512;" xml:space="preserve">
<polygon style="fill:#2488FF;" points="300.522,122.435 300.522,155.826 267.13,155.826 267.13,189.217 233.739,189.217 
	233.739,222.609 200.348,222.609 200.348,256 166.957,256 166.957,289.391 133.565,289.391 133.565,322.783 100.174,322.783 
	100.174,356.174 66.783,356.174 66.783,389.565 0,389.565 0,422.957 0,456.348 66.783,456.348 66.783,422.957 100.174,422.957 
	100.174,389.565 133.565,389.565 133.565,356.174 166.957,356.174 166.957,322.783 200.348,322.783 200.348,289.391 
	233.739,289.391 233.739,256 267.13,256 267.13,222.609 300.522,222.609 300.522,189.217 367.304,189.217 367.304,155.826 
	367.304,122.435 "/>
<g>
	<polygon style="fill:#005ECE;" points="400.696,55.652 400.696,89.043 478.609,89.043 478.609,122.435 400.696,122.435 
		400.696,222.609 512,222.609 512,189.217 434.087,189.217 434.087,155.826 512,155.826 512,55.652 	"/>
	<polygon style="fill:#005ECE;" points="300.522,389.565 300.522,356.174 267.13,356.174 267.13,322.783 233.739,322.783 
		233.739,289.391 200.348,289.391 200.348,256 166.957,256 166.957,222.609 133.565,222.609 133.565,189.217 100.174,189.217 
		100.174,155.826 66.783,155.826 66.783,122.435 0,122.435 0,155.826 0,189.217 66.783,189.217 66.783,222.609 100.174,222.609 
		100.174,256 133.565,256 133.565,289.391 166.957,289.391 166.957,322.783 200.348,322.783 200.348,356.174 233.739,356.174 
		233.739,389.565 267.13,389.565 267.13,422.957 300.522,422.957 300.522,456.348 367.304,456.348 367.304,422.957 367.304,389.565 
			"/>
</g>
<g>
</g>
<g>
</g>
<g>
</g>
<g>
</g>
<g>
</g>
<g>
</g>
<g>
</g>
<g>
</g>
<g>
</g>
<g>
</g>
<g>
</g>
<g>
</g>
<g>
</g>
<g>
</g>
<g>
</g>
</svg>
