<?xml version="1.0" encoding="iso-8859-1"?>
<!-- Generator: Adobe Illustrator 19.0.0, SVG Export Plug-In . SVG Version: 6.00 Build 0)  -->
<svg version="1.1" id="Layer_1" xmlns="http://www.w3.org/2000/svg" xmlns:xlink="http://www.w3.org/1999/xlink" x="0px" y="0px"
	 viewBox="0 0 512 512" style="enable-background:new 0 0 512 512;" xml:space="preserve">
<polygon style="fill:#005ECE;" points="0,66.783 0,66.786 0,66.786 0,222.606 66.783,222.606 66.783,189.213 100.174,189.213 
	100.174,345.043 44.522,345.043 44.522,445.217 267.13,445.217 267.13,345.043 211.478,345.043 211.478,189.213 244.87,189.213 
	244.87,222.606 311.652,222.606 311.652,66.783 "/>
<g>
	<rect x="478.609" y="66.783" style="fill:#2488FF;" width="33.391" height="32.423"/>
	<polygon style="fill:#2488FF;" points="445.217,33.381 445.217,0 411.826,0 411.826,33.381 378.435,33.381 378.435,66.783 
		411.826,66.783 411.826,445.217 378.435,445.217 378.435,478.609 411.826,478.609 411.826,512 445.217,512 445.217,478.609 
		478.609,478.609 478.609,445.217 445.217,445.217 445.217,66.783 478.609,66.783 478.609,33.381 	"/>
	<rect x="345.043" y="66.783" style="fill:#2488FF;" width="33.391" height="32.423"/>
	<rect x="478.609" y="410.924" style="fill:#2488FF;" width="33.391" height="34.294"/>
	<rect x="345.043" y="410.924" style="fill:#2488FF;" width="33.391" height="34.294"/>
</g>
<polygon points="0,222.606 66.783,222.606 66.783,189.213 33.391,189.213 33.391,100.174 278.261,100.174 278.261,189.213 
	244.87,189.213 244.87,222.606 311.652,222.606 311.652,66.783 0,66.783 "/>
<polygon points="178.087,155.826 178.087,378.435 233.739,378.435 233.739,411.826 77.913,411.826 77.913,378.435 133.565,378.435 
	133.565,155.826 66.783,155.826 66.783,189.213 100.174,189.213 100.174,345.043 44.522,345.043 44.522,445.217 267.13,445.217 
	267.13,345.043 211.478,345.043 211.478,189.213 244.87,189.213 244.87,155.826 "/>
<g>
</g>
<g>
</g>
<g>
</g>
<g>
</g>
<g>
</g>
<g>
</g>
<g>
</g>
<g>
</g>
<g>
</g>
<g>
</g>
<g>
</g>
<g>
</g>
<g>
</g>
<g>
</g>
<g>
</g>
</svg>
